<svg xmlns="http://www.w3.org/2000/svg" aria-hidden="true" style="position:absolute;width:0;height:0;overflow:hidden">
  <defs>
   <symbol id="burger-menu" viewBox="0 0 38 32">
<path d="M36.727-0.009h-35.636c-0.2 0-0.364 0.164-0.364 0.364v2.909c0 0.2 0.164 0.364 0.364 0.364h35.636c0.2 0 0.364-0.164 0.364-0.364v-2.909c0-0.2-0.164-0.364-0.364-0.364zM36.727 28.355h-35.636c-0.2 0-0.364 0.164-0.364 0.364v2.909c0 0.2 0.164 0.364 0.364 0.364h35.636c0.2 0 0.364-0.164 0.364-0.364v-2.909c0-0.2-0.164-0.364-0.364-0.364zM36.727 14.173h-35.636c-0.2 0-0.364 0.164-0.364 0.364v2.909c0 0.2 0.164 0.364 0.364 0.364h35.636c0.2 0 0.364-0.164 0.364-0.364v-2.909c0-0.2-0.164-0.364-0.364-0.364z"></path>
</symbol>
<symbol id="logo" viewBox="0 0 80 32">
<path d="M6.497 19.030v0.379h-5.972v-0.379h0.493c0.576 0 0.994-0.167 1.254-0.502 0.164-0.219 0.246-0.745 0.246-1.578v-8.976c0-0.703-0.044-1.168-0.133-1.393-0.069-0.171-0.209-0.317-0.421-0.441-0.273-0.154-0.599-0.245-0.946-0.246h-0.494v-0.379h5.972v0.379h-0.503c-0.569 0-0.983 0.167-1.244 0.502-0.172 0.219-0.257 0.745-0.257 1.578v8.975c0 0.703 0.044 1.168 0.133 1.393 0.069 0.171 0.213 0.318 0.432 0.441 0.269 0.155 0.591 0.246 0.935 0.246 0 0 0.001 0 0.001 0h0.503zM6.733 5.516h3.783l8.522 10.42v-8.012c0-0.854-0.096-1.387-0.288-1.598-0.253-0.287-0.654-0.43-1.203-0.43h-0.483v-0.379h4.852v0.379h-0.494c-0.589 0-1.007 0.178-1.253 0.533-0.151 0.219-0.227 0.717-0.227 1.496v11.711h-0.37l-9.19-11.189v8.556c0 0.853 0.092 1.387 0.277 1.598 0.261 0.287 0.661 0.43 1.203 0.43h0.493v0.379h-4.852v-0.379h0.483c0.596 0 1.018-0.178 1.264-0.533 0.151-0.219 0.227-0.717 0.227-1.495v-9.662c-0.404-0.471-0.713-0.782-0.925-0.933-0.205-0.15-0.51-0.29-0.915-0.42-0.199-0.061-0.5-0.092-0.905-0.092v-0.379zM31.877 5.199v4.805h-0.381c-0.123-0.923-0.346-1.657-0.668-2.203-0.316-0.547-0.768-0.981-1.357-1.301-0.589-0.322-1.199-0.482-1.829-0.482-0.713 0-1.302 0.219-1.769 0.656-0.466 0.43-0.699 0.922-0.699 1.475 0 0.423 0.147 0.81 0.442 1.158 0.425 0.512 1.436 1.195 3.033 2.049 1.302 0.697 2.19 1.233 2.662 1.609 0.48 0.369 0.846 0.805 1.1 1.311 0.26 0.505 0.39 1.035 0.39 1.588 0 1.052-0.411 1.961-1.234 2.725-0.815 0.758-1.867 1.138-3.156 1.138-0.404 0-0.785-0.031-1.141-0.092-0.212-0.034-0.654-0.157-1.326-0.369-0.665-0.219-1.086-0.327-1.264-0.327-0.172 0-0.309 0.051-0.411 0.154-0.096 0.102-0.168 0.314-0.216 0.635h-0.38v-4.764h0.38c0.178 0.997 0.418 1.745 0.719 2.244 0.301 0.492 0.761 0.901 1.378 1.229 0.623 0.328 1.306 0.492 2.045 0.492 0.857 0 1.532-0.225 2.025-0.676 0.5-0.451 0.75-0.983 0.75-1.598 0-0.341-0.096-0.686-0.288-1.035-0.185-0.348-0.476-0.673-0.874-0.973-0.267-0.205-0.997-0.638-2.189-1.301-1.193-0.669-2.043-1.202-2.549-1.598-0.5-0.396-0.881-0.833-1.141-1.311s-0.39-1.004-0.39-1.578c0-0.997 0.384-1.854 1.151-2.572 0.767-0.724 1.744-1.086 2.93-1.086 0.74 0 1.525 0.181 2.354 0.543 0.384 0.171 0.654 0.256 0.812 0.256 0.178 0 0.322-0.051 0.432-0.154 0.116-0.109 0.209-0.324 0.277-0.645h0.381zM38.261 12.903v4.047c0 0.874 0.096 1.417 0.288 1.629 0.26 0.301 0.654 0.451 1.182 0.451h0.534v0.379h-5.972v-0.379h0.524c0.589 0 1.011-0.192 1.264-0.574 0.138-0.212 0.206-0.714 0.206-1.506v-8.976c0-0.874-0.092-1.417-0.277-1.629-0.267-0.3-0.665-0.451-1.193-0.451h-0.524v-0.379h5.109c1.247 0 2.23 0.129 2.95 0.389 0.72 0.252 1.326 0.683 1.82 1.291s0.74 1.328 0.74 2.162c0 1.134-0.377 2.056-1.131 2.766-0.747 0.71-1.806 1.066-3.177 1.066-0.336 0-0.699-0.024-1.090-0.071-0.504-0.064-0.93-0.139-1.349-0.233l0.095 0.018zM38.261 12.319c0.363 0.068 0.685 0.119 0.966 0.154s0.521 0.051 0.72 0.051c0.713 0 1.326-0.273 1.84-0.819 0.521-0.554 0.781-1.267 0.781-2.141 0-0.602-0.124-1.158-0.37-1.67-0.247-0.519-0.596-0.905-1.049-1.157-0.452-0.26-0.966-0.389-1.542-0.389-0.35 0-0.798 0.064-1.347 0.194v5.779zM52.159 19.030v0.379h-5.973v-0.379h0.493c0.576 0 0.994-0.167 1.254-0.502 0.164-0.219 0.246-0.745 0.246-1.578v-8.976c0-0.703-0.044-1.168-0.133-1.393-0.069-0.171-0.209-0.317-0.421-0.441-0.273-0.154-0.599-0.245-0.946-0.246h-0.493v-0.379h5.973v0.379h-0.504c-0.569 0-0.983 0.167-1.244 0.502-0.171 0.219-0.257 0.745-0.257 1.578v8.975c0 0.703 0.045 1.168 0.133 1.393 0.069 0.171 0.213 0.318 0.432 0.441 0.269 0.155 0.591 0.246 0.935 0.246 0 0 0.001 0 0.001 0h0.504zM66.9 19.41h-3.721l-4.719-6.496c-0.349 0.014-0.634 0.021-0.853 0.021h-0.288c-0.102-0.007-0.209-0.014-0.318-0.020v4.037c0 0.874 0.096 1.417 0.288 1.629 0.26 0.301 0.651 0.451 1.171 0.451h0.545v0.379h-5.972v-0.379h0.524c0.589 0 1.011-0.192 1.264-0.574 0.145-0.212 0.216-0.714 0.216-1.506v-8.976c0-0.874-0.096-1.417-0.288-1.629-0.267-0.3-0.665-0.451-1.192-0.451h-0.524v-0.379h5.078c1.481 0 2.57 0.109 3.269 0.327 0.706 0.212 1.302 0.608 1.789 1.188 0.493 0.574 0.74 1.26 0.74 2.060 0 0.853-0.281 1.595-0.843 2.223-0.555 0.628-1.418 1.072-2.59 1.332l2.878 3.986c0.658 0.915 1.223 1.523 1.697 1.824s1.090 0.492 1.85 0.573v0.379zM57.001 12.268c0.13 0 0.243 0.004 0.339 0.011h0.237c1.329 0 2.33-0.287 3.002-0.861 0.678-0.574 1.017-1.305 1.017-2.193 0-0.868-0.274-1.571-0.822-2.111-0.542-0.547-1.261-0.82-2.159-0.82-0.397 0-0.935 0.065-1.614 0.195v5.779zM71.114 6.275v5.492h3.064c0.795 0 1.325-0.119 1.593-0.358 0.356-0.315 0.555-0.868 0.596-1.66h0.38v4.836h-0.38c-0.097-0.676-0.192-1.11-0.288-1.301-0.124-0.239-0.326-0.427-0.607-0.563s-0.713-0.205-1.294-0.205h-3.064v4.58c0 0.614 0.027 0.99 0.082 1.127 0.055 0.13 0.151 0.236 0.288 0.317 0.137 0.075 0.398 0.113 0.781 0.113h2.364c0.788 0 1.361-0.055 1.717-0.164s0.699-0.324 1.028-0.645c0.425-0.423 0.86-1.062 1.305-1.916h0.411l-1.203 3.483h-10.742v-0.379h0.494c0.329 0 0.641-0.079 0.935-0.236 0.219-0.109 0.366-0.274 0.442-0.492 0.082-0.219 0.123-0.667 0.123-1.342v-9.027c0-0.881-0.089-1.424-0.267-1.629-0.246-0.273-0.658-0.41-1.233-0.41h-0.494v-0.379h10.742l0.154 3.043h-0.401c-0.144-0.731-0.305-1.233-0.483-1.506-0.172-0.273-0.428-0.482-0.771-0.625-0.274-0.102-0.757-0.154-1.449-0.154h-3.825zM19.28 22.643l0.128 1.89h-0.128c-0.17-0.565-0.412-0.973-0.727-1.221s-0.693-0.373-1.135-0.373c-0.37 0-0.704 0.095-1.003 0.283-0.299 0.186-0.535 0.484-0.708 0.893-0.17 0.41-0.255 0.919-0.255 1.529 0 0.503 0.081 0.939 0.243 1.308s0.404 0.652 0.727 0.848c0.326 0.197 0.698 0.295 1.115 0.295 0.362 0 0.681-0.077 0.958-0.229 0.277-0.156 0.581-0.463 0.913-0.923l0.127 0.082c-0.279 0.494-0.606 0.857-0.979 1.086s-0.816 0.344-1.328 0.344c-0.924 0-1.639-0.341-2.147-1.025-0.379-0.508-0.567-1.107-0.567-1.795 0-0.555 0.125-1.064 0.374-1.529 0.24-0.453 0.59-0.819 1.015-1.071l0.012-0.007c0.405-0.242 0.893-0.386 1.415-0.386 0.007 0 0.014 0 0.021 0h-0.001c0.403 0 0.8 0.099 1.193 0.295 0.115 0.060 0.197 0.090 0.246 0.090 0.001 0 0.002 0 0.003 0 0.074 0 0.142-0.030 0.191-0.078l-0 0c0.071-0.074 0.122-0.176 0.152-0.308h0.144zM23.68 26.467h-2.158l-0.379 0.877c-0.093 0.215-0.14 0.377-0.14 0.483 0 0.085 0.040 0.16 0.119 0.226 0.082 0.063 0.258 0.104 0.526 0.123v0.152h-1.756v-0.152c0.233-0.041 0.384-0.094 0.452-0.16 0.14-0.131 0.294-0.397 0.464-0.799l1.962-4.573h0.144l1.941 4.623c0.156 0.371 0.297 0.613 0.423 0.725 0.129 0.109 0.307 0.171 0.534 0.184v0.152h-2.199v-0.152c0.222-0.011 0.371-0.048 0.448-0.11 0.072-0.052 0.119-0.135 0.119-0.229v-0c0-0.121-0.055-0.31-0.165-0.57l-0.337-0.799zM23.565 26.164l-0.946-2.245-0.971 2.245h1.916zM30.74 26.791l0.135 0.029-0.477 1.508h-4.317v-0.152h0.21c0.236 0 0.404-0.076 0.506-0.229 0.058-0.087 0.086-0.29 0.086-0.606v-3.586c0-0.347-0.038-0.564-0.115-0.652-0.107-0.12-0.266-0.18-0.477-0.18h-0.21v-0.151h2.524v0.151c-0.296-0.003-0.504 0.025-0.625 0.082-0.118 0.057-0.199 0.13-0.243 0.217s-0.066 0.297-0.066 0.627v3.492c0 0.227 0.022 0.382 0.066 0.467 0.035 0.058 0.087 0.103 0.15 0.126l0.002 0.001c0.068 0.027 0.283 0.041 0.642 0.041h0.407c0.428 0 0.727-0.031 0.9-0.094s0.331-0.173 0.473-0.332c0.142-0.162 0.285-0.414 0.428-0.758zM33.66 28.176v0.152h-2.389v-0.152h0.197c0.23 0 0.398-0.067 0.501-0.201 0.066-0.087 0.099-0.298 0.099-0.631v-3.589c0-0.282-0.018-0.467-0.053-0.557-0.028-0.068-0.084-0.127-0.169-0.176-0.109-0.062-0.24-0.098-0.379-0.099h-0.197v-0.151h2.389v0.151h-0.202c-0.228 0-0.394 0.067-0.498 0.201-0.069 0.087-0.103 0.298-0.103 0.631v3.59c0 0.282 0.018 0.468 0.053 0.558 0.028 0.068 0.085 0.127 0.173 0.176 0.118 0.066 0.243 0.098 0.374 0.098h0.202zM35.588 23.074v2.185h1.015c0.233 0 0.403-0.051 0.51-0.151 0.109-0.104 0.182-0.308 0.218-0.611h0.153v1.881h-0.153c-0.003-0.216-0.031-0.374-0.086-0.475-0.049-0.098-0.126-0.175-0.22-0.224l-0.003-0.001c-0.093-0.052-0.233-0.078-0.419-0.078h-1.015v1.746c0 0.282 0.018 0.468 0.053 0.558 0.027 0.068 0.085 0.127 0.172 0.176 0.121 0.066 0.247 0.098 0.379 0.098h0.201v0.152h-2.393v-0.152h0.197c0.23 0 0.397-0.067 0.501-0.201 0.066-0.087 0.099-0.298 0.099-0.631v-3.589c0-0.282-0.018-0.467-0.053-0.557-0.028-0.068-0.084-0.127-0.169-0.176-0.108-0.062-0.238-0.099-0.376-0.099-0.001 0-0.002 0-0.003 0h-0.197v-0.151h4.149l0.053 1.221h-0.144c-0.071-0.26-0.155-0.45-0.251-0.57-0.089-0.118-0.207-0.21-0.344-0.264l-0.005-0.002c-0.137-0.054-0.35-0.082-0.641-0.082h-1.229zM41.633 22.644c0.724 0 1.35 0.274 1.879 0.823 0.532 0.547 0.798 1.229 0.798 2.049 0 0.844-0.267 1.545-0.802 2.102s-1.181 0.836-1.941 0.836c-0.767 0-1.413-0.272-1.936-0.816-0.522-0.543-0.782-1.247-0.782-2.11 0-0.882 0.302-1.602 0.905-2.16 0.524-0.483 1.15-0.725 1.879-0.725zM41.554 22.942c-0.499 0-0.899 0.185-1.201 0.554-0.375 0.459-0.563 1.131-0.563 2.016 0 0.907 0.195 1.605 0.583 2.094 0.299 0.372 0.693 0.557 1.184 0.557 0.524 0 0.956-0.203 1.296-0.611 0.342-0.407 0.514-1.049 0.514-1.926 0-0.951-0.188-1.66-0.563-2.127-0.301-0.372-0.718-0.558-1.25-0.558zM50.329 28.328h-1.489l-1.887-2.598c-0.14 0.005-0.253 0.008-0.341 0.008h-0.115l-0.127-0.008v1.614c0 0.35 0.038 0.567 0.115 0.652 0.104 0.121 0.261 0.18 0.469 0.18h0.218v0.152h-2.389v-0.152h0.21c0.236 0 0.404-0.076 0.506-0.229 0.058-0.085 0.086-0.285 0.086-0.603v-3.589c0-0.35-0.038-0.567-0.115-0.652-0.107-0.12-0.266-0.18-0.477-0.18h-0.21v-0.151h2.031c0.592 0 1.028 0.044 1.308 0.131 0.282 0.084 0.521 0.243 0.715 0.475 0.197 0.229 0.296 0.504 0.296 0.824 0 0.341-0.112 0.638-0.337 0.889-0.222 0.251-0.567 0.429-1.036 0.533l1.151 1.594c0.263 0.366 0.489 0.61 0.678 0.73s0.436 0.197 0.74 0.229v0.152zM46.369 25.471c0.052 0 0.098 0.001 0.136 0.004h0.094c0.532 0 0.932-0.115 1.201-0.344 0.272-0.229 0.407-0.522 0.407-0.877 0-0.347-0.11-0.628-0.329-0.844-0.217-0.219-0.505-0.328-0.864-0.328-0.158 0-0.373 0.026-0.645 0.078v2.311zM50.144 22.771h1.513l3.409 4.168v-3.205c0-0.341-0.038-0.555-0.115-0.639-0.101-0.115-0.261-0.172-0.481-0.172h-0.193v-0.151h1.941v0.151h-0.197c-0.236 0-0.403 0.071-0.502 0.213-0.060 0.087-0.091 0.287-0.091 0.598v4.684h-0.148l-3.676-4.476v3.422c0 0.341 0.037 0.555 0.111 0.639 0.104 0.115 0.265 0.172 0.481 0.172h0.197v0.152h-1.941v-0.152h0.193c0.239 0 0.407-0.071 0.506-0.213 0.060-0.087 0.091-0.286 0.091-0.598v-3.865c-0.162-0.189-0.285-0.313-0.371-0.373-0.082-0.060-0.204-0.116-0.366-0.168-0.079-0.025-0.2-0.037-0.362-0.037v-0.151zM58.939 28.176v0.152h-2.389v-0.152h0.197c0.231 0 0.398-0.067 0.502-0.201 0.066-0.087 0.099-0.298 0.099-0.631v-3.589c0-0.282-0.018-0.467-0.053-0.557-0.035-0.077-0.094-0.137-0.166-0.175l-0.002-0.001c-0.109-0.062-0.24-0.098-0.379-0.099h-0.197v-0.151h2.389v0.151h-0.201c-0.228 0-0.394 0.067-0.498 0.201-0.068 0.087-0.102 0.298-0.102 0.631v3.59c0 0.282 0.018 0.468 0.053 0.558 0.028 0.068 0.085 0.127 0.173 0.176 0.118 0.066 0.243 0.098 0.374 0.098h0.201zM62.997 26.467h-2.158l-0.379 0.877c-0.093 0.215-0.14 0.377-0.14 0.483 0 0.085 0.040 0.16 0.119 0.226 0.082 0.063 0.258 0.104 0.526 0.123v0.152h-1.756v-0.152c0.233-0.041 0.383-0.094 0.452-0.16 0.14-0.131 0.295-0.397 0.465-0.799l1.962-4.573h0.143l1.941 4.623c0.156 0.371 0.297 0.613 0.423 0.725 0.129 0.109 0.307 0.171 0.535 0.184v0.152h-2.2v-0.152c0.222-0.011 0.371-0.048 0.448-0.11 0.072-0.052 0.119-0.135 0.119-0.229v-0c0-0.121-0.055-0.31-0.164-0.57l-0.338-0.799zM62.882 26.164l-0.946-2.245-0.971 2.245h1.916z"></path>
</symbol>
    </defs>
</svg>