<svg width="150" height="60" viewBox="0 0 150 60" fill="none" xmlns="http://www.w3.org/2000/svg">
<path d="M12.1814 35.6825V36.3933H0.982971V35.6825H1.90813C2.98749 35.6825 3.77131 35.3687 4.2596 34.7411C4.56799 34.3313 4.72218 33.3451 4.72218 31.7826V14.9537C4.72218 13.6346 4.63865 12.7637 4.47161 12.3411C4.34312 12.0209 4.0797 11.7455 3.68137 11.5149C3.11599 11.2076 2.52491 11.0539 1.90813 11.0539H0.982971V10.3431H12.1814V11.0539H11.2369C10.1704 11.0539 9.39297 11.3677 8.90469 11.9952C8.58346 12.4051 8.42284 13.3913 8.42284 14.9537V31.7826C8.42284 33.1018 8.50636 33.9727 8.6734 34.3954C8.80189 34.7156 9.07174 34.9909 9.48292 35.2214C10.0355 35.5288 10.6201 35.6825 11.2369 35.6825H12.1814ZM12.6247 10.3431H19.7176L35.6959 29.8807V14.8577C35.6959 13.2568 35.516 12.2578 35.1562 11.8608C34.6808 11.3228 33.9291 11.0539 32.9011 11.0539H31.9953V10.3431H41.0927V11.0539H40.1675C39.0625 11.0539 38.2787 11.3869 37.8161 12.0529C37.5334 12.4627 37.392 13.3977 37.392 14.8577V36.816H36.6982L19.467 15.8375V31.8787C19.467 33.4797 19.6404 34.4786 19.9874 34.8756C20.4757 35.4135 21.2274 35.6825 22.2425 35.6825H23.1677V36.3933H14.0702V35.6825H14.9761C16.094 35.6825 16.8843 35.3495 17.3468 34.6835C17.6295 34.2737 17.7708 33.3387 17.7708 31.8787V13.7627C17.0127 12.879 16.4345 12.2962 16.0362 12.0144C15.6507 11.7327 15.0788 11.4702 14.3207 11.2268C13.9481 11.1116 13.3827 11.0539 12.6247 11.0539V10.3431ZM59.7695 9.74756V18.7575H59.0564C58.8251 17.0285 58.4074 15.6518 57.8035 14.6272C57.2125 13.6025 56.3644 12.7893 55.2593 12.1873C54.1542 11.5854 53.0106 11.2845 51.8284 11.2845C50.4922 11.2845 49.3871 11.6943 48.5133 12.514C47.6395 13.3208 47.2026 14.243 47.2026 15.2804C47.2026 16.0744 47.4789 16.798 48.0315 17.4512C48.8281 18.4118 50.7234 19.6925 53.7174 21.2934C56.1588 22.5998 57.8228 23.6051 58.7094 24.3095C59.6088 25.0012 60.2963 25.8208 60.7717 26.7685C61.26 27.7163 61.5041 28.7089 61.5041 29.7463C61.5041 31.7186 60.7332 33.422 59.1913 34.8564C57.6622 36.278 55.6898 36.9889 53.2741 36.9889C52.5159 36.9889 51.8028 36.9312 51.1346 36.816C50.7363 36.7519 49.9075 36.5214 48.6482 36.1244C47.4019 35.7145 46.6116 35.5096 46.2775 35.5096C45.9562 35.5096 45.6993 35.6056 45.5065 35.7977C45.3266 35.9898 45.1917 36.3869 45.1017 36.9889H44.3886V28.0557H45.1017C45.4359 29.9256 45.8856 31.328 46.4509 32.2629C47.0163 33.1851 47.8772 33.9535 49.0337 34.5682C50.203 35.183 51.4816 35.4904 52.8693 35.4904C54.4754 35.4904 55.7412 35.0677 56.6663 34.2225C57.6043 33.3772 58.0734 32.3782 58.0734 31.2255C58.0734 30.5852 57.8935 29.9384 57.5337 29.2852C57.1867 28.6321 56.6406 28.0237 55.8953 27.4602C55.3942 27.0759 54.0257 26.2626 51.79 25.0204C49.5541 23.7653 47.9608 22.7662 47.0099 22.0234C46.0719 21.2806 45.3587 20.4609 44.8705 19.5644C44.3822 18.6679 44.1381 17.6818 44.1381 16.6059C44.1381 14.7361 44.8576 13.1287 46.2968 11.784C47.7359 10.4264 49.567 9.74756 51.79 9.74756C53.1777 9.74756 54.6489 10.0869 56.2037 10.7657C56.9233 11.0859 57.4308 11.246 57.7264 11.246C58.0604 11.246 58.3303 11.1499 58.5359 10.9578C58.7544 10.7529 58.9278 10.3495 59.0564 9.74756H59.7695ZM71.7388 24.1943V31.7826C71.7388 33.422 71.9187 34.4402 72.2785 34.8372C72.7668 35.4007 73.5056 35.6825 74.495 35.6825H75.4973V36.3933H64.2989V35.6825H65.2819C66.3869 35.6825 67.1772 35.3239 67.6526 34.6067C67.9096 34.2096 68.0381 33.2683 68.0381 31.7826V14.9537C68.0381 13.3145 67.8646 12.2962 67.5177 11.8992C67.0166 11.3356 66.2713 11.0539 65.2819 11.0539H64.2989V10.3431H73.8782C76.2169 10.3431 78.0608 10.5864 79.41 11.0731C80.7591 11.547 81.8963 12.3539 82.8215 13.4938C83.7467 14.6336 84.2092 15.9847 84.2092 17.5472C84.2092 19.6733 83.5025 21.4023 82.0891 22.7343C80.6884 24.0662 78.7032 24.7322 76.1333 24.7322C75.5037 24.7322 74.8227 24.6874 74.0902 24.5977C73.3578 24.5081 72.574 24.3735 71.7388 24.1943ZM71.7388 23.0993C72.4198 23.2273 73.0237 23.3233 73.5505 23.3874C74.0774 23.4514 74.5271 23.4835 74.8997 23.4835C76.2361 23.4835 77.3862 22.9712 78.3498 21.9466C79.3264 20.9092 79.8147 19.5708 79.8147 17.9315C79.8147 16.8044 79.5834 15.7606 79.1208 14.8001C78.6582 13.8267 78.0029 13.1031 77.1549 12.6292C76.3068 12.1426 75.3431 11.8992 74.2637 11.8992C73.6083 11.8992 72.7668 12.0209 71.7388 12.2643V23.0993ZM97.7976 35.6825V36.3933H86.5992V35.6825H87.5244C88.6038 35.6825 89.3876 35.3687 89.8758 34.7411C90.1842 34.3313 90.3385 33.3451 90.3385 31.7826V14.9537C90.3385 13.6346 90.2549 12.7637 90.0879 12.3411C89.9594 12.0209 89.6959 11.7455 89.2976 11.5149C88.7323 11.2076 88.1412 11.0539 87.5244 11.0539H86.5992V10.3431H97.7976V11.0539H96.8531C95.7866 11.0539 95.0092 11.3677 94.5209 11.9952C94.1997 12.4051 94.0391 13.3913 94.0391 14.9537V31.7826C94.0391 33.1018 94.1226 33.9727 94.2897 34.3954C94.4182 34.7156 94.688 34.9909 95.0992 35.2214C95.6517 35.5288 96.2363 35.6825 96.8531 35.6825H97.7976ZM125.437 36.3933H118.46L109.612 24.2135C108.957 24.2391 108.424 24.2519 108.013 24.2519C107.846 24.2519 107.666 24.2519 107.473 24.2519C107.281 24.2391 107.081 24.2263 106.876 24.2135V31.7826C106.876 33.422 107.056 34.4402 107.416 34.8372C107.903 35.4007 108.636 35.6825 109.612 35.6825H110.634V36.3933H99.4362V35.6825H100.419C101.524 35.6825 102.314 35.3239 102.789 34.6067C103.06 34.2096 103.194 33.2683 103.194 31.7826V14.9537C103.194 13.3145 103.014 12.2962 102.654 11.8992C102.154 11.3356 101.408 11.0539 100.419 11.0539H99.4362V10.3431H108.957C111.733 10.3431 113.776 10.5481 115.086 10.9578C116.41 11.3549 117.528 12.0977 118.441 13.1863C119.365 14.2622 119.828 15.5493 119.828 17.0477C119.828 18.6486 119.301 20.0383 118.247 21.2165C117.207 22.3948 115.588 23.2273 113.39 23.714L118.787 31.1871C120.021 32.9033 121.081 34.0432 121.968 34.6067C122.854 35.1702 124.011 35.5288 125.437 35.6825V36.3933ZM106.876 23.0032C107.12 23.0032 107.332 23.0096 107.511 23.0224C107.692 23.0224 107.839 23.0224 107.956 23.0224C110.448 23.0224 112.324 22.4845 113.584 21.4086C114.856 20.3329 115.491 18.9624 115.491 17.2975C115.491 15.671 114.977 14.3518 113.95 13.34C112.934 12.3154 111.585 11.8031 109.902 11.8031C109.157 11.8031 108.148 11.9248 106.876 12.1682V23.0032ZM133.339 11.7647V22.0619H139.084C140.574 22.0619 141.569 21.8377 142.071 21.3895C142.739 20.8003 143.112 19.7629 143.189 18.2772H143.901V27.3449H143.189C143.008 26.0769 142.829 25.2637 142.649 24.9051C142.417 24.4568 142.038 24.1046 141.511 23.8485C140.985 23.5924 140.175 23.4643 139.084 23.4643H133.339V32.0516C133.339 33.2043 133.39 33.9087 133.493 34.1648C133.597 34.4082 133.776 34.6067 134.033 34.7603C134.29 34.9013 134.779 34.9717 135.498 34.9717H139.931C141.409 34.9717 142.482 34.8692 143.15 34.6643C143.818 34.4594 144.461 34.056 145.078 33.454C145.874 32.6599 146.69 31.4625 147.525 29.8616H148.296L146.041 36.3933H125.899V35.6825H126.825C127.442 35.6825 128.026 35.5352 128.579 35.2406C128.99 35.0357 129.266 34.7283 129.408 34.3185C129.561 33.9087 129.638 33.0698 129.638 31.8018V14.8769C129.638 13.2247 129.472 12.2066 129.137 11.8223C128.675 11.3101 127.904 11.0539 126.825 11.0539H125.899V10.3431H146.041L146.33 16.0488H145.579C145.309 14.6784 145.007 13.737 144.673 13.2247C144.351 12.7125 143.87 12.3218 143.227 12.0529C142.713 11.8608 141.807 11.7647 140.51 11.7647H133.339Z" fill="black"/>
<path d="M36.1508 42.4565L36.3898 45.999H36.1508C35.8321 44.9386 35.3773 44.1753 34.7862 43.7091C34.195 43.2428 33.4858 43.0098 32.6583 43.0098C31.9644 43.0098 31.3373 43.1865 30.7771 43.54C30.2169 43.8884 29.7749 44.4468 29.4511 45.2153C29.1323 45.9837 28.9731 46.9391 28.9731 48.0815C28.9731 49.0241 29.1246 49.8413 29.4279 50.5328C29.7312 51.2244 30.186 51.7547 30.7925 52.1235C31.4042 52.4924 32.1006 52.6768 32.8819 52.6768C33.5603 52.6768 34.1591 52.5334 34.6782 52.2465C35.1974 51.9544 35.7679 51.3782 36.3898 50.5175L36.6288 50.6711C36.1045 51.5984 35.4928 52.2772 34.7939 52.7075C34.0949 53.1378 33.2648 53.353 32.3037 53.353C30.5716 53.353 29.23 52.7126 28.2791 51.432C27.5699 50.479 27.2152 49.3571 27.2152 48.0661C27.2152 47.0262 27.4491 46.0707 27.9169 45.1998C28.3845 44.3289 29.0271 43.6553 29.8443 43.1788C30.6666 42.6973 31.5635 42.4565 32.535 42.4565C33.2905 42.4565 34.0358 42.641 34.7708 43.0098C34.9866 43.1224 35.1408 43.1788 35.2333 43.1788C35.3721 43.1788 35.4928 43.1302 35.5957 43.0328C35.7293 42.8945 35.8244 42.7024 35.881 42.4565H36.1508ZM44.4002 49.626H40.3525L39.6433 51.2705C39.4685 51.6753 39.3811 51.9776 39.3811 52.1773C39.3811 52.3361 39.4557 52.477 39.6047 52.6C39.759 52.7178 40.0879 52.7946 40.5916 52.8304V53.1148H37.2996V52.8304C37.7364 52.7536 38.0191 52.6537 38.1475 52.5307C38.4097 52.2848 38.7001 51.7854 39.0188 51.0323L42.6963 42.4565H42.9662L46.6052 51.1246C46.8981 51.8213 47.1628 52.2746 47.3992 52.4847C47.6408 52.6896 47.9749 52.8049 48.4015 52.8304V53.1148H44.2768V52.8304C44.6932 52.81 44.9732 52.7408 45.1172 52.623C45.2662 52.5052 45.3407 52.3618 45.3407 52.1927C45.3407 51.9672 45.2379 51.6113 45.0323 51.1246L44.4002 49.626ZM44.1843 49.0574L42.4111 44.8464L40.5916 49.0574H44.1843ZM57.6377 50.2331L57.8922 50.2869L56.9978 53.1148H48.9026V52.8304H49.2958C49.7378 52.8304 50.054 52.687 50.2442 52.4001C50.352 52.2362 50.406 51.8572 50.406 51.2629V44.5389C50.406 43.8884 50.3341 43.4811 50.1902 43.3172C49.9897 43.0918 49.6916 42.979 49.2958 42.979H48.9026V42.6947H53.6364V42.979C53.0813 42.9739 52.6906 43.0252 52.4646 43.1328C52.2435 43.2403 52.0919 43.3761 52.0096 43.54C51.9274 43.704 51.8863 44.0958 51.8863 44.7157V51.2629C51.8863 51.6881 51.9274 51.9801 52.0096 52.1389C52.0713 52.2465 52.1664 52.3259 52.2949 52.3771C52.4234 52.4283 52.8243 52.4539 53.4976 52.4539H54.2609C55.0627 52.4539 55.6255 52.395 55.9493 52.2772C56.2731 52.1593 56.5686 51.9519 56.836 51.6547C57.1032 51.3525 57.3704 50.8787 57.6377 50.2331ZM63.1116 52.8304V53.1148H58.6323V52.8304H59.0024C59.4341 52.8304 59.7476 52.7049 59.9429 52.4539C60.0663 52.29 60.128 51.8955 60.128 51.2705V44.5389C60.128 44.0113 60.0945 43.6629 60.0277 43.494C59.9763 43.3658 59.871 43.2557 59.7116 43.1635C59.4854 43.0405 59.2491 42.979 59.0024 42.979H58.6323V42.6947H63.1116V42.979H62.7338C62.3072 42.979 61.9963 43.1045 61.801 43.3556C61.6725 43.5195 61.6082 43.914 61.6082 44.5389V51.2705C61.6082 51.7982 61.6416 52.1465 61.7084 52.3156C61.7598 52.4437 61.8678 52.5539 62.0323 52.646C62.2532 52.769 62.4871 52.8304 62.7338 52.8304H63.1116ZM66.7275 43.2634V47.3591H68.6318C69.0687 47.3591 69.3873 47.2644 69.5877 47.0749C69.7934 46.8802 69.9296 46.4985 69.9964 45.9299H70.2817V49.457H69.9964C69.9913 49.0523 69.9373 48.7552 69.8345 48.5656C69.7369 48.3761 69.598 48.2352 69.4182 48.143C69.2434 48.0457 68.9812 47.997 68.6318 47.997H66.7275V51.2705C66.7275 51.7982 66.7608 52.1465 66.8277 52.3156C66.8791 52.4437 66.987 52.5539 67.1515 52.646C67.3776 52.769 67.6141 52.8304 67.8608 52.8304H68.2385V53.1148H63.7516V52.8304H64.1216C64.5534 52.8304 64.8669 52.7049 65.0622 52.4539C65.1855 52.29 65.2472 51.8955 65.2472 51.2705V44.5389C65.2472 44.0113 65.2138 43.6629 65.147 43.494C65.0955 43.3658 64.9902 43.2557 64.8309 43.1635C64.6099 43.0405 64.3735 42.979 64.1216 42.979H63.7516V42.6947H71.5306L71.6308 44.9847H71.361C71.2274 44.498 71.0706 44.142 70.8907 43.9165C70.716 43.686 70.4975 43.5195 70.2354 43.417C69.9784 43.3146 69.5775 43.2634 69.0326 43.2634H66.7275ZM78.0608 42.4565C79.4177 42.4565 80.5921 42.9714 81.5841 44.0011C82.5812 45.0256 83.0797 46.3064 83.0797 47.8433C83.0797 49.4263 82.5786 50.7403 81.5764 51.7854C80.5741 52.8304 79.3611 53.353 77.9374 53.353C76.4982 53.353 75.2878 52.8433 74.3061 51.8238C73.3295 50.8043 72.8413 49.4852 72.8413 47.8664C72.8413 46.2117 73.4066 44.8618 74.5373 43.8167C75.5191 42.9099 76.6935 42.4565 78.0608 42.4565ZM77.9142 43.0175C76.9788 43.0175 76.2284 43.3632 75.663 44.0549C74.9588 44.9156 74.6068 46.1758 74.6068 47.8356C74.6068 49.5364 74.9718 50.8453 75.7015 51.7623C76.2618 52.459 77.0019 52.8074 77.9219 52.8074C78.9036 52.8074 79.7131 52.4258 80.3505 51.6624C80.993 50.8991 81.3142 49.6952 81.3142 48.0508C81.3142 46.268 80.9622 44.9386 80.258 44.0626C79.6926 43.3658 78.9113 43.0175 77.9142 43.0175ZM94.3668 53.1148H91.5759L88.037 48.2429C87.7749 48.2531 87.5617 48.2582 87.3972 48.2582C87.3304 48.2582 87.2584 48.2582 87.1814 48.2582C87.1042 48.2531 87.0246 48.248 86.9423 48.2429V51.2705C86.9423 51.9263 87.0143 52.3335 87.1582 52.4924C87.3535 52.7178 87.6465 52.8304 88.037 52.8304H88.4457V53.1148H83.9663V52.8304H84.3596C84.8016 52.8304 85.1177 52.687 85.3078 52.4001C85.4158 52.2414 85.4698 51.8648 85.4698 51.2705V44.5389C85.4698 43.8833 85.3978 43.476 85.2539 43.3172C85.0534 43.0918 84.7553 42.979 84.3596 42.979H83.9663V42.6947H87.7749C88.8851 42.6947 89.7023 42.7767 90.2267 42.9406C90.756 43.0994 91.2032 43.3966 91.5682 43.832C91.9382 44.2623 92.1233 44.7772 92.1233 45.3766C92.1233 46.017 91.9125 46.5728 91.491 47.0441C91.0747 47.5154 90.4271 47.8484 89.5482 48.0431L91.7069 51.0323C92.2003 51.7188 92.6244 52.1748 92.9791 52.4001C93.3336 52.6256 93.7963 52.769 94.3668 52.8304V53.1148ZM86.9423 47.7588C87.0399 47.7588 87.1248 47.7613 87.1968 47.7664C87.2687 47.7664 87.3278 47.7664 87.3741 47.7664C88.3712 47.7664 89.1216 47.5513 89.6253 47.1209C90.1341 46.6907 90.3886 46.1425 90.3886 45.4765C90.3886 44.8259 90.1829 44.2982 89.7718 43.8935C89.3657 43.4836 88.826 43.2787 88.1527 43.2787C87.8546 43.2787 87.4512 43.3274 86.9423 43.4247V47.7588ZM94.0198 42.6947H96.8569L103.248 50.5098V44.5006C103.248 43.8601 103.176 43.4606 103.032 43.3018C102.843 43.0866 102.542 42.979 102.13 42.979H101.768V42.6947H105.407V42.979H105.037C104.595 42.979 104.282 43.1122 104.096 43.3787C103.984 43.5425 103.926 43.9165 103.926 44.5006V53.2839H103.649L96.7568 44.8924V51.309C96.7568 51.9493 96.8262 52.349 96.9649 52.5077C97.1602 52.7229 97.4609 52.8304 97.867 52.8304H98.237V53.1148H94.5981V52.8304H94.9604C95.4076 52.8304 95.7237 52.6973 95.9087 52.4309C96.0218 52.2669 96.0783 51.893 96.0783 51.309V44.0626C95.7751 43.7091 95.5438 43.476 95.3844 43.3632C95.2302 43.2506 95.0015 43.1456 94.6982 43.0482C94.5492 43.0021 94.323 42.979 94.0198 42.979V42.6947ZM110.511 52.8304V53.1148H106.031V52.8304H106.401C106.834 52.8304 107.147 52.7049 107.342 52.4539C107.465 52.29 107.527 51.8955 107.527 51.2705V44.5389C107.527 44.0113 107.494 43.6629 107.427 43.494C107.375 43.3658 107.271 43.2557 107.111 43.1635C106.885 43.0405 106.648 42.979 106.401 42.979H106.031V42.6947H110.511V42.979H110.134C109.706 42.979 109.395 43.1045 109.2 43.3556C109.072 43.5195 109.008 43.914 109.008 44.5389V51.2705C109.008 51.7982 109.041 52.1465 109.107 52.3156C109.16 52.4437 109.267 52.5539 109.432 52.646C109.653 52.769 109.887 52.8304 110.134 52.8304H110.511ZM118.12 49.626H114.073L113.363 51.2705C113.189 51.6753 113.101 51.9776 113.101 52.1773C113.101 52.3361 113.176 52.477 113.325 52.6C113.479 52.7178 113.809 52.7946 114.312 52.8304V53.1148H111.02V52.8304C111.457 52.7536 111.739 52.6537 111.867 52.5307C112.13 52.2848 112.42 51.7854 112.739 51.0323L116.417 42.4565H116.686L120.326 51.1246C120.619 51.8213 120.883 52.2746 121.119 52.4847C121.361 52.6896 121.695 52.8049 122.122 52.8304V53.1148H117.997V52.8304C118.413 52.81 118.693 52.7408 118.837 52.623C118.986 52.5052 119.061 52.3618 119.061 52.1927C119.061 51.9672 118.958 51.6113 118.753 51.1246L118.12 49.626ZM117.905 49.0574L116.132 44.8464L114.312 49.0574H117.905Z" fill="black"/>
</svg>
